<!-- Generated by IcoMoon.io -->
<svg version="1.1" xmlns="http://www.w3.org/2000/svg" width="24" height="24" viewBox="0 0 24 24">
<title>download</title>
<path d="M18 8.4h-3.6v-7.2h-4.8v7.2h-3.6l6 6 6-6zM23.206 16.238c-0.252-0.269-1.933-2.068-2.413-2.537-0.318-0.311-0.773-0.502-1.25-0.502h-2.108l3.677 3.593h-4.253c-0.122 0-0.233 0.062-0.288 0.16l-0.979 2.248h-7.181l-0.979-2.248c-0.055-0.097-0.167-0.16-0.288-0.16h-4.253l3.676-3.593h-2.107c-0.476 0-0.931 0.191-1.25 0.502-0.48 0.47-2.161 2.269-2.413 2.537-0.587 0.625-0.91 1.123-0.756 1.739l0.673 3.689c0.154 0.617 0.829 1.123 1.502 1.123h19.574c0.673 0 1.349-0.506 1.502-1.123l0.673-3.689c0.151-0.616-0.17-1.114-0.758-1.739z"></path>
</svg>
